{"title":"Paranormal Activity 2 2010 Cam V2 Xvid Feel-Free","uid":5913012,"size":969152674,"categoryP":"video","categoryS":"movies","magnet":"?xt=urn:btih:a753fe73799fdba2d32d572b37f0999909f2bdc6&amp;dn=Paranormal+Activity+2+2010+Cam+V2+Xvid+Feel-Free&amp;tr=udp%3A%2F%2Ftracker.openbittorrent.com%3A80&amp;tr=udp%3A%2F%2Fopen.demonii.com%3A1337&amp;tr=udp%3A%2F%2Ftracker.coppersurfer.tk%3A6969&amp;tr=udp%3A%2F%2Fexodus.desync.com%3A6969","seeders":0,"leechers":0,"uploader":".BONE.","files":10,"time":1288119128,"description":"Genre:Horror\nLanguage:English\nIMDb:http://www.imdb.com/title/tt1536044/\nSource:Ts.ELEKTRI4KA/Audio:Own/XBoxMySocks/LKRG.Thx\n\n\nGeneral\nComplete name :Paranormal Activity 2 2010 Cam V2 Xvid Feel-Free\nFormat : AVI\nFormat/Info : Audio Video Interleave\nFile size : 924 MiB\nDuration : 1h 24mn\nOverall bit rate : 1 528 Kbps\nVideo #0\nCodec ID : XVID\nCodec ID/Hint : XviD\nDuration : 1h 24mn\nBit rate : 1 390 Kbps\nWidth : 652 pixels\nHeight : 352 pixels\nDisplay aspect ratio : 1.852\nFrame rate : 25.000 fps\nResolution : 24 bits\nColorimetry : 4:2:0\nScan type : Progressive\nBits/(Pixel*Frame) : 0.242\nStream size : 841 MiB (91%)\nWriting library : XviD 1.2.1 (UTC 2008-12-04)\nAudio #1\nID : 1\nFormat : MPEG Audio\nFormat version : Version 1\nFormat profile : Layer 3\nCodec ID : 55\nCodec ID/Hint : MP3\nDuration : 1h 24mn\nBit rate mode : Constant\nBit rate : 128 Kbps\nChannel(s) : 2 channels\nSampling rate : 48.0 KHz\nResolution : 16 bits\nVideo delay : 1s 500ms\nStream size : 77.4 MiB (8%)\nAlignment : Split accross interleaves\nInterleave, duration : 40 ms (1.00 video frame)\nInterleave, preload duration : 500 ms\n\nPlot:\nAfter experiencing what they think are a series of &quot;break-ins&quot;, a family sets up security cameras around their home, only to realize that the events unfolding before them are more sinister than they seem.","torrent":{"xt":"urn:btih:a753fe73799fdba2d32d572b37f0999909f2bdc6","amp;dn":"Paranormal+Activity+2+2010+Cam+V2+Xvid+Feel-Free","amp;tr":["udp%3A%2F%2Ftracker.openbittorrent.com%3A80","udp%3A%2F%2Fopen.demonii.com%3A1337","udp%3A%2F%2Ftracker.coppersurfer.tk%3A6969","udp%3A%2F%2Fexodus.desync.com%3A6969"],"infoHash":"a753fe73799fdba2d32d572b37f0999909f2bdc6","infoHashBuffer":{"type":"Buffer","data":[167,83,254,115,121,159,219,162,211,45,87,43,55,240,153,153,9,242,189,198]},"announce":[],"urlList":[]}}